<svg xmlns="http://www.w3.org/2000/svg" xmlns:xlink="http://www.w3.org/1999/xlink" width="500" zoomAndPan="magnify" viewBox="0 0 375 374.999991" height="500" preserveAspectRatio="xMidYMid meet" version="1.0"><defs><g/><clipPath id="4223eb4d61"><path d="M 90.785156 56.269531 L 195 56.269531 L 195 160 L 90.785156 160 Z M 90.785156 56.269531 " clip-rule="nonzero"/></clipPath><clipPath id="870b83649b"><path d="M 110 168 L 195 168 L 195 252.019531 L 110 252.019531 Z M 110 168 " clip-rule="nonzero"/></clipPath><clipPath id="8f3915de08"><path d="M 203 79 L 284.285156 79 L 284.285156 160 L 203 160 Z M 203 79 " clip-rule="nonzero"/></clipPath></defs><g clip-path="url(#4223eb4d61)"><path fill="#48bbc6" d="M 135.535156 143.390625 L 178.214844 143.390625 L 178.214844 100.796875 L 194.308594 100.796875 L 194.308594 56.269531 L 90.867188 56.269531 L 90.867188 159.503906 L 135.535156 159.503906 Z M 135.535156 143.390625 " fill-opacity="1" fill-rule="evenodd"/></g><g clip-path="url(#870b83649b)"><path fill="#6ca8da" d="M 143.804688 184.664062 L 135.535156 184.664062 L 135.535156 168.3125 L 110.429688 168.3125 L 110.429688 252.019531 L 194.308594 252.019531 L 194.308594 227.257812 L 178.214844 227.257812 L 178.214844 184.664062 Z M 143.804688 184.664062 " fill-opacity="1" fill-rule="evenodd"/></g><g clip-path="url(#8f3915de08)"><path fill="#6ca8da" d="M 227.84375 143.390625 L 262.253906 143.390625 L 262.253906 159.953125 L 284.203125 159.953125 L 284.203125 79.527344 L 203.613281 79.527344 L 203.613281 100.796875 L 219.574219 100.796875 L 219.574219 143.390625 Z M 227.84375 143.390625 " fill-opacity="1" fill-rule="evenodd"/></g><path fill="#48bbc6" d="M 270.523438 168.789062 L 262.253906 168.789062 L 262.253906 184.664062 L 219.574219 184.664062 L 219.574219 227.257812 L 203.613281 227.257812 L 203.613281 235.511719 L 270.523438 235.511719 Z M 270.523438 168.789062 " fill-opacity="1" fill-rule="evenodd"/><path fill="#4198b2" d="M 227.84375 235.511719 L 227.84375 192.917969 L 270.523438 192.917969 L 270.523438 168.789062 L 262.253906 168.789062 L 262.253906 184.664062 L 219.574219 184.664062 L 219.574219 227.257812 L 203.613281 227.257812 L 203.613281 235.511719 Z M 227.84375 235.511719 " fill-opacity="1" fill-rule="evenodd"/><path fill="#5486c4" d="M 186.488281 227.257812 L 194.308594 227.257812 L 194.308594 235.511719 L 186.488281 235.511719 Z M 186.488281 227.257812 " fill-opacity="1" fill-rule="evenodd"/><path fill="#5486c4" d="M 143.804688 184.664062 L 178.214844 184.664062 L 178.214844 192.917969 L 143.804688 192.917969 Z M 143.804688 184.664062 " fill-opacity="1" fill-rule="evenodd"/><path fill="#5486c4" d="M 262.253906 151.644531 L 262.253906 159.953125 L 270.523438 159.953125 L 270.523438 151.644531 Z M 219.574219 109.050781 L 219.574219 143.390625 L 227.84375 143.390625 L 227.84375 109.050781 Z M 219.574219 109.050781 " fill-opacity="1" fill-rule="evenodd"/><g fill="#000000" fill-opacity="1"><g transform="translate(115.453804, 322.822608)"><g><path d="M 27.40625 -35.296875 L 26.875 -27.03125 L 26.671875 -26.984375 C 25.285156 -29.066406 22.925781 -30.414062 19.59375 -31.03125 C 18.539062 -31.238281 17.53125 -31.34375 16.5625 -31.34375 C 15.601562 -31.34375 14.78125 -31.253906 14.09375 -31.078125 C 13.40625 -30.910156 12.820312 -30.671875 12.34375 -30.359375 C 11.3125 -29.679688 10.796875 -28.800781 10.796875 -27.71875 C 10.796875 -26.289062 11.242188 -25.222656 12.140625 -24.515625 C 13.265625 -23.648438 15.128906 -23.039062 17.734375 -22.6875 C 20.335938 -22.34375 22.425781 -21.867188 24 -21.265625 C 25.570312 -20.671875 26.863281 -19.914062 27.875 -19 C 29.789062 -17.28125 30.75 -14.84375 30.75 -11.6875 C 30.75 -7.570312 29.191406 -4.398438 26.078125 -2.171875 C 23.421875 -0.253906 20.066406 0.703125 16.015625 0.703125 C 12.753906 0.703125 9.535156 0.0820312 6.359375 -1.15625 C 5.304688 -1.5625 4.382812 -2.035156 3.59375 -2.578125 L 3.90625 -11.96875 L 4.015625 -12.0625 C 6.335938 -8.050781 10.148438 -6.046875 15.453125 -6.046875 C 19.222656 -6.046875 21.71875 -6.953125 22.9375 -8.765625 C 23.34375 -9.390625 23.546875 -10.078125 23.546875 -10.828125 C 23.546875 -11.585938 23.425781 -12.21875 23.1875 -12.71875 C 22.945312 -13.21875 22.546875 -13.644531 21.984375 -14 C 20.890625 -14.707031 19.054688 -15.179688 16.484375 -15.421875 C 13.921875 -15.671875 11.820312 -16.128906 10.1875 -16.796875 C 8.5625 -17.472656 7.265625 -18.3125 6.296875 -19.3125 C 4.535156 -21.101562 3.65625 -23.613281 3.65625 -26.84375 C 3.65625 -30.175781 4.828125 -32.875 7.171875 -34.9375 C 9.546875 -37.03125 12.75 -38.078125 16.78125 -38.078125 C 20.820312 -38.078125 24.363281 -37.148438 27.40625 -35.296875 Z M 27.40625 -35.296875 "/></g></g></g><g fill="#000000" fill-opacity="1"><g transform="translate(157.03508, 322.822608)"><g><path d="M 5.703125 -37.5 C 7.578125 -37.414062 8.710938 -37.375 9.109375 -37.375 L 11.125 -37.375 C 12.125 -37.375 12.921875 -37.453125 13.515625 -37.609375 L 13.484375 0 L 5.703125 0 Z M 5.703125 -37.5 "/></g></g></g><g fill="#000000" fill-opacity="1"><g transform="translate(184.313678, 322.822608)"><g><path d="M 27.40625 -35.296875 L 26.875 -27.03125 L 26.671875 -26.984375 C 25.285156 -29.066406 22.925781 -30.414062 19.59375 -31.03125 C 18.539062 -31.238281 17.53125 -31.34375 16.5625 -31.34375 C 15.601562 -31.34375 14.78125 -31.253906 14.09375 -31.078125 C 13.40625 -30.910156 12.820312 -30.671875 12.34375 -30.359375 C 11.3125 -29.679688 10.796875 -28.800781 10.796875 -27.71875 C 10.796875 -26.289062 11.242188 -25.222656 12.140625 -24.515625 C 13.265625 -23.648438 15.128906 -23.039062 17.734375 -22.6875 C 20.335938 -22.34375 22.425781 -21.867188 24 -21.265625 C 25.570312 -20.671875 26.863281 -19.914062 27.875 -19 C 29.789062 -17.28125 30.75 -14.84375 30.75 -11.6875 C 30.75 -7.570312 29.191406 -4.398438 26.078125 -2.171875 C 23.421875 -0.253906 20.066406 0.703125 16.015625 0.703125 C 12.753906 0.703125 9.535156 0.0820312 6.359375 -1.15625 C 5.304688 -1.5625 4.382812 -2.035156 3.59375 -2.578125 L 3.90625 -11.96875 L 4.015625 -12.0625 C 6.335938 -8.050781 10.148438 -6.046875 15.453125 -6.046875 C 19.222656 -6.046875 21.71875 -6.953125 22.9375 -8.765625 C 23.34375 -9.390625 23.546875 -10.078125 23.546875 -10.828125 C 23.546875 -11.585938 23.425781 -12.21875 23.1875 -12.71875 C 22.945312 -13.21875 22.546875 -13.644531 21.984375 -14 C 20.890625 -14.707031 19.054688 -15.179688 16.484375 -15.421875 C 13.921875 -15.671875 11.820312 -16.128906 10.1875 -16.796875 C 8.5625 -17.472656 7.265625 -18.3125 6.296875 -19.3125 C 4.535156 -21.101562 3.65625 -23.613281 3.65625 -26.84375 C 3.65625 -30.175781 4.828125 -32.875 7.171875 -34.9375 C 9.546875 -37.03125 12.75 -38.078125 16.78125 -38.078125 C 20.820312 -38.078125 24.363281 -37.148438 27.40625 -35.296875 Z M 27.40625 -35.296875 "/></g></g></g><g fill="#000000" fill-opacity="1"><g transform="translate(225.894947, 322.822608)"><g><path d="M 7.5625 0.21875 C 5.945312 0.0703125 4.0625 0 1.90625 0 L -0.3125 0 L 11.921875 -34.265625 C 12.460938 -35.796875 12.734375 -36.6875 12.734375 -36.9375 C 12.734375 -37.195312 12.722656 -37.351562 12.703125 -37.40625 L 12.734375 -37.46875 C 13.953125 -37.40625 15.242188 -37.375 16.609375 -37.375 C 17.734375 -37.375 19.082031 -37.394531 20.65625 -37.4375 L 20.6875 -37.375 C 20.644531 -37.300781 20.625 -37.203125 20.625 -37.078125 C 20.625 -36.710938 20.90625 -35.765625 21.46875 -34.234375 L 33.953125 0.078125 C 33.578125 0.0664062 33.132812 0.0625 32.625 0.0625 C 32.625 0.0625 32.140625 0.0390625 31.171875 0 C 30.703125 0 30.28125 0 29.90625 0 L 25.546875 0 L 22.90625 -8.09375 L 10.203125 -8.09375 Z M 20.71875 -14.84375 L 16.46875 -27.90625 L 12.34375 -14.84375 Z M 20.71875 -14.84375 "/></g></g></g></svg>